<svg xmlns="http://www.w3.org/2000/svg" version="1.1" xmlns:xlink="http://www.w3.org/1999/xlink" xmlns:svgjs="http://svgjs.com/svgjs" width="512" height="512" x="0" y="0" viewBox="0 0 682.66669 682.66669" style="enable-background:new 0 0 512 512" xml:space="preserve" class=""><g><defs id="defs283"><clipPath clipPathUnits="userSpaceOnUse" id="clipPath293"><path d="M 0,512 H 512 V 0 H 0 Z" id="path291" fill="#9500f2" data-original="#000000"></path></clipPath></defs><g id="g285" transform="matrix(1.3333333,0,0,-1.3333333,0,682.66667)"><g id="g287"><g id="g289" clip-path="url(#clipPath293)"><g id="g295" transform="translate(177.4004,177.3999)"><path d="m 0,0 c -73.113,73.113 -73.113,191.652 0,264.766 73.112,73.112 191.652,73.112 264.765,0 C 337.878,191.652 337.878,73.113 264.765,0 191.652,-73.113 73.112,-73.113 0,0 Z" style="stroke-width:30;stroke-linecap:butt;stroke-linejoin:miter;stroke-miterlimit:10;stroke-dasharray:none;stroke-opacity:1" id="path297" fill="none" stroke="#9500f2" stroke-width="30" stroke-linecap="butt" stroke-linejoin="miter" stroke-miterlimit="10" stroke-dasharray="none" stroke-opacity="" data-original="#000000"></path></g><g id="g299" transform="translate(379.7822,309.7827)"><path d="m 0,0 c 0,-38.66 -31.34,-70 -70,-70 -38.659,0 -70,31.34 -70,70 0,38.66 31.341,70 70,70 C -31.34,70 0,38.66 0,0 Z" style="stroke-width:30;stroke-linecap:butt;stroke-linejoin:miter;stroke-miterlimit:10;stroke-dasharray:none;stroke-opacity:1" id="path301" fill="none" stroke="#9500f2" stroke-width="30" stroke-linecap="butt" stroke-linejoin="miter" stroke-miterlimit="10" stroke-dasharray="none" stroke-opacity="" data-original="#000000"></path></g><g id="g303" transform="translate(309.7822,379.7827)"><path d="m 0,0 c 91.921,0 126.196,-70 126.196,-70 0,0 -34.275,-70 -126.196,-70 -91.921,0 -126.195,70 -126.195,70 0,0 34.274,70 126.195,70 z" style="stroke-width:30;stroke-linecap:butt;stroke-linejoin:miter;stroke-miterlimit:10;stroke-dasharray:none;stroke-opacity:1" id="path305" fill="none" stroke="#9500f2" stroke-width="30" stroke-linecap="butt" stroke-linejoin="miter" stroke-miterlimit="10" stroke-dasharray="none" stroke-opacity="" data-original="#000000"></path></g><g id="g307" transform="translate(294.7822,309.7827)"><path d="M 0,0 H 30" style="stroke-width:30;stroke-linecap:butt;stroke-linejoin:miter;stroke-miterlimit:10;stroke-dasharray:none;stroke-opacity:1" id="path309" fill="none" stroke="#9500f2" stroke-width="30" stroke-linecap="butt" stroke-linejoin="miter" stroke-miterlimit="10" stroke-dasharray="none" stroke-opacity="" data-original="#000000"></path></g><g id="g311" transform="translate(158.6641,199.2573)"><path d="m 0,0 -131.122,-118.044 c -16.149,-14.573 -16.793,-39.702 -1.411,-55.083 15.381,-15.381 40.51,-14.737 55.083,1.411 L 41.814,-41.485" style="stroke-width:30;stroke-linecap:butt;stroke-linejoin:miter;stroke-miterlimit:10;stroke-dasharray:none;stroke-opacity:1" id="path313" fill="none" stroke="#9500f2" stroke-width="30" stroke-linecap="butt" stroke-linejoin="miter" stroke-miterlimit="10" stroke-dasharray="none" stroke-opacity="" data-original="#000000"></path></g><g id="g315" transform="translate(68.6729,118.2422)"><path d="M 0,0 49.903,-49.903" style="stroke-width:30;stroke-linecap:butt;stroke-linejoin:miter;stroke-miterlimit:10;stroke-dasharray:none;stroke-opacity:1" id="path317" fill="none" stroke="#9500f2" stroke-width="30" stroke-linecap="butt" stroke-linejoin="miter" stroke-miterlimit="10" stroke-dasharray="none" stroke-opacity="" data-original="#000000"></path></g></g></g></g></g></svg>